# xmcd
#
# Track frame offsets:
#	150
#	13410
#	29509
#	47942
#	69140
#	95978
#	118576
#	139750
#	156015
#	174873
#	194607
#
# Disc length: 3041 seconds
#
# Revision: 1
# Processed by: cddbd v1.5.2PL0 Copyright (c) Steve Scherf et al.
# Submitted via: audiograbber 1.83.01
#
DISCID=9a0bdf0b
DTITLE=impromp2 - it is what it is
DYEAR=1900
DGENRE=
TTITLE0=it is what it is
TTITLE1=luv 2 ball
TTITLE2=good thang
TTITLE3=i wanna know
TTITLE4=keep doin
TTITLE5=i wanna marry u
TTITLE6=mojazz
TTITLE7=you're a queen
TTITLE8=dance with u
TTITLE9=it's alright
TTITLE10=it was love
EXTD=
EXTT0=
EXTT1=
EXTT2=
EXTT3=
EXTT4=
EXTT5=
EXTT6=
EXTT7=
EXTT8=
EXTT9=
EXTT10=
PLAYORDER=
